<svg width="140" height="136" viewBox="0 0 140 136" fill="none" xmlns="http://www.w3.org/2000/svg">
<path d="M137.996 31.2576C133.709 19.1224 114.578 13.5167 108.523 10.422H67.4103H42.5562H19.4951L0.574219 0C12.1132 0.407307 23.6479 0.810408 35.1827 1.21352C46.285 0.810408 57.383 0.403108 68.4853 0C72.1175 0.138568 77.2571 0.394703 83.4171 0.898588C92.4366 1.63342 96.9464 1.99874 102.157 3.13248C108.137 4.42998 114.57 6.12639 121.926 10.422C131.29 15.8934 135.846 23.1409 137.996 31.2576Z" fill="#D1735D"/>
<path d="M137.997 31.2572H19.4961V10.4216H108.524C114.928 9.11568 133.706 19.1178 137.997 31.2572Z" fill="#E99257"/>
<path d="M137.997 52.093C137.141 54.8056 135.44 58.7947 131.82 62.5109C131.338 63.0063 130.976 63.3381 130.582 63.6992C128.465 65.635 124.229 69.4435 117.896 71.4968C115.835 72.1645 112.631 72.9497 108.528 72.9245H19.4961V52.0889H137.997V52.093Z" fill="#D1735D"/>
<path d="M139.727 42.0787C139.673 43.3049 139.58 45.2826 139.32 47.0294C139.135 48.2765 138.77 50.0191 137.997 52.0934H19.4961V31.2578H137.997C138.312 32.1438 138.585 33.0508 138.82 33.9704C139.223 35.5534 139.82 37.9259 139.773 40.9912C139.765 41.2725 139.752 41.5413 139.727 42.0787Z" fill="#EC8845"/>
<path d="M137.997 114.6C137.275 117.078 135.721 121.121 132.198 124.774C131.367 125.635 128.066 128.927 119.815 131.682C115.272 133.202 107.659 135.083 97.6822 134.462C89.175 134.785 80.6677 135.112 72.1605 135.436C65.3916 135.167 58.6185 134.902 51.8497 134.634C41.0666 134.902 30.2792 135.167 19.4961 135.436V114.6H137.997Z" fill="#893242"/>
<path d="M139.673 104.166C139.727 105.325 139.71 106.034 139.698 106.416C139.576 109.944 138.715 112.757 137.997 114.6H19.4961V93.7646H137.997C139.198 98.266 139.563 101.797 139.673 104.166Z" fill="#763B4D"/>
<path d="M137.997 93.7603H19.4961V72.9247H108.524C110.779 72.9079 114.096 73.1346 117.871 74.3439C124.501 76.4729 128.549 80.3654 130.275 82.0702C134.621 86.3532 136.863 90.9008 137.997 93.7603Z" fill="#884553"/>
<path d="M19.4951 114.6V135.435L8.26686 129.254L0.574219 125.022C0.654001 121.146 0.729582 117.274 0.809364 113.399C0.729582 110.329 0.649801 107.256 0.574219 104.186L19.4951 114.6Z" fill="#883F50"/>
<path d="M19.4951 93.7609V114.597L0.574219 104.179C0.712787 100.786 0.847161 97.3972 0.985729 94.0044C0.847161 90.4478 0.712787 86.8955 0.574219 83.3389L19.4951 93.7609Z" fill="#754555"/>
<path d="M19.4967 72.9292V93.7649L0.575819 83.3471C0.500236 81.5457 0.47504 79.6393 0.521229 77.6364C0.580016 75.0834 0.74798 72.6857 0.983126 70.4602C0.844558 67.8106 0.71019 65.161 0.571622 62.5156L19.4967 72.9292Z" fill="#865460"/>
<path d="M19.4967 52.0936V72.9292L0.575779 62.5114C0.491798 59.1606 0.445605 55.7342 0.441406 52.2364C0.441406 48.6378 0.487599 45.1148 0.575779 41.6758C6.88274 45.1484 13.1897 48.621 19.4967 52.0936Z" fill="#D07A6B"/>
<path d="M19.4951 31.2575V52.0931L0.574219 41.6711C0.729583 38.4588 0.884942 35.2424 1.04031 32.0301C0.884942 28.2971 0.729583 24.5684 0.574219 20.8354L19.4951 31.2575Z" fill="#E9955C"/>
<path d="M19.4961 10.422V31.2576L0.575266 20.8398C0.382111 17.3546 0.193156 13.8736 0 10.3884C0.193156 6.92421 0.382111 3.46421 0.575266 0L19.4961 10.422Z" fill="#E7A274"/>
<g opacity="0.5">
<g opacity="0.5">
<path opacity="0.5" d="M24.4629 31.354H133.029L110.791 33.1218L68.3429 32.2358L24.4629 31.354Z" fill="#3D2718"/>
</g>
</g>
<g opacity="0.5">
<g opacity="0.5">
<path opacity="0.5" d="M25.1035 93.8857H109.718L109.021 93.8269C98.8596 92.9409 88.5006 92.731 78.2256 93.1971L57.0624 94.1628L25.1035 93.8857Z" fill="#3D2718"/>
</g>
</g>
<g opacity="0.5">
<g opacity="0.5">
<path opacity="0.5" d="M19.6602 73.0629H104.275L103.578 73.0041C93.4163 72.1181 102.801 75.4311 72.7822 72.3784L51.619 73.3442L19.6602 73.0629Z" fill="#3D2718"/>
</g>
</g>
<g opacity="0.5">
<g opacity="0.5">
<path opacity="0.5" d="M36.7871 51.9047H120.705L80.8518 51.1992L70.7028 52.9922L36.7871 51.9047Z" fill="#3D2718"/>
</g>
</g>
<g opacity="0.5">
<g opacity="0.5">
<path opacity="0.5" d="M24.5938 114.714H112.929L112.203 114.781C102.415 115.672 80.4662 113.908 68.7047 113.228C66.9285 113.127 65.1523 113.152 63.3803 113.299L55.6204 113.958L24.5938 114.714Z" fill="#3D2718"/>
</g>
</g>
<path d="M46.5978 10.8121L46.3374 12.962L42.2266 13.4239C42.2266 13.4239 44.2253 13.6674 44.8594 14.0075C45.4934 14.3434 45.716 16.4724 45.7706 17.6145C45.7957 18.131 45.9595 18.7902 46.1233 19.4201C46.3248 20.1885 46.5264 20.9149 46.4802 21.2887C46.4382 21.6288 46.2198 22.6324 46.0561 23.5939C45.8923 24.5555 45.7789 25.4835 45.9469 25.6767C46.2072 25.979 45.4178 26.3653 44.9265 26.7936C44.7838 26.9196 44.6662 27.0455 44.6074 27.1757C44.3429 27.7552 42.2895 27.7678 43.037 28.469C43.7844 29.1703 45.3674 31.0262 45.3674 31.0262L46.7573 31.7191L44.8426 32.0634L45.0441 28.364L44.5822 26.739C44.2925 25.7144 44.7208 24.7487 45.7999 23.9802L47.0345 22.2376C47.7105 21.2845 47.467 20.1591 46.3542 19.1178L45.0231 17.8664L45.9679 15.9727C45.9679 15.9727 50.1963 14.1545 47.2108 13.6716C44.2295 13.1887 42.0292 10.2494 42.6003 10.3166C43.1713 10.3879 45.7286 11.5679 45.7286 11.5679L46.5978 10.8121Z" fill="#262626"/>
<path d="M20.8151 72.7611L20.5547 74.911L18.6316 75.6375C18.6316 75.6375 19.5344 75.7508 19.8073 76.0406C20.0802 76.3303 20.0424 78.4298 19.992 79.5594C19.9711 80.0717 20.0005 80.7141 20.0382 81.3314C20.0802 82.0788 20.1264 82.7842 20.0802 83.1622C20.0382 83.5023 19.8745 84.51 19.7317 85.4758C19.5931 86.4416 19.4798 87.3696 19.5428 87.5501C19.6435 87.8315 19.253 88.2682 19.0011 88.7217C18.9255 88.856 18.8625 88.9904 18.8289 89.1248C18.6694 89.7168 17.7204 89.8638 18.0185 90.5147C18.3166 91.1613 18.9255 92.8997 18.9255 92.8997L19.5218 93.496L18.6148 93.9621L18.9507 90.2795L18.8457 88.7007C18.7785 87.7055 19.0389 86.7145 19.5889 85.8831L20.2734 84.0733C20.6471 83.0824 20.6093 81.9864 20.1642 81.0248L19.6309 79.8701L20.1936 77.9301C20.1936 77.9301 22.2637 75.8474 20.92 75.5661C19.5764 75.2847 18.7575 72.5092 19.0137 72.5386C19.274 72.5722 20.3742 73.5757 20.3742 73.5757L20.8151 72.7611Z" fill="#262626"/>
<path d="M125.775 29.7002L124.805 32.0853L127.812 34.5333C127.812 34.5333 126.095 33.8405 125.406 33.8908C124.717 33.9412 123.378 36.0743 122.706 37.2501C122.404 37.7834 121.912 38.3964 121.438 38.9843C120.858 39.6939 120.3 40.3616 120.132 40.7773C119.977 41.1552 119.603 42.3099 119.208 43.4017C118.813 44.4934 118.393 45.5222 118.154 45.6439C117.78 45.8371 118.196 46.6181 118.351 47.3026C118.398 47.5041 118.423 47.6931 118.398 47.8611C118.288 48.5959 119.914 49.591 118.935 49.9732C117.957 50.3553 115.689 51.552 115.689 51.552L114.207 51.6192L115.538 52.8915L117.402 48.9066L118.658 47.4201C119.447 46.4837 119.636 45.2618 119.204 43.9349L119.179 41.5163C119.162 40.1936 119.972 39.127 121.425 38.5602L123.168 37.8799L123.453 35.4361C123.453 35.4361 121.093 31.5058 123.726 32.4254C126.359 33.3408 129.71 31.2958 129.219 31.0985C128.727 30.8969 126.053 30.9221 126.053 30.9221L125.775 29.7002Z" fill="#262626"/>
<path d="M50.7243 94.5873L51.434 96.6322L54.7344 96.4978C54.7344 96.4978 53.2396 97.0185 52.8281 97.4342C52.4123 97.8499 52.7399 99.9452 52.9666 101.062C53.0674 101.566 53.0968 102.23 53.1178 102.864C53.143 103.636 53.1556 104.367 53.2815 104.724C53.3949 105.051 53.798 105.988 54.1549 106.899C54.5077 107.81 54.8142 108.692 54.7302 108.906C54.5958 109.238 55.3013 109.498 55.7842 109.842C55.9227 109.943 56.0487 110.052 56.1243 110.17C56.4644 110.695 58.0643 110.418 57.6486 111.203C57.2328 111.992 56.4392 114.008 56.4392 114.008L55.5196 114.877L57.0901 114.94L56.0655 111.383L56.0403 109.746C56.0235 108.713 55.465 107.835 54.4447 107.243L53.0758 105.732C52.3284 104.904 52.2528 103.779 52.87 102.612L53.6133 101.209L52.4333 99.5085C52.4333 99.5085 48.7214 98.3454 50.9259 97.4552C53.1304 96.565 54.1465 93.4031 53.7182 93.5543C53.2899 93.7013 51.5809 95.2087 51.5809 95.2087L50.7243 94.5873Z" fill="#262626"/>
<path d="M9.06 3.32959V5.69784L7.60293 6.73921C7.60293 6.73921 8.09003 8.73795 8.33357 9.01928C8.57712 9.30062 8.99282 9.58616 9.0642 10.8207C9.09779 11.3791 9.18177 12.072 9.26995 12.7354C9.37493 13.5417 9.4799 14.3017 9.4799 14.7174C9.4799 15.0953 9.44631 16.208 9.42952 17.2746C9.41272 18.3412 9.41272 19.3615 9.4799 19.5505C9.58908 19.8444 9.32035 20.3651 9.16078 20.8942C9.1146 21.0495 9.0768 21.2007 9.0642 21.3519C8.99282 22.0153 8.25799 22.3009 8.55612 22.9643C8.85425 23.6278 9.5051 25.4291 9.5051 25.4291L10.0342 26.0002V23.9133L9.26995 22.5864L8.29997 18.887L10.0342 15.8511L8.09002 10.4428L9.06 9.02349C9.06 9.02349 10.5003 6.49147 9.40853 6.3655C8.31258 6.23533 5.93591 4.27858 6.14586 4.27858H8.78286L9.06 3.32959Z" fill="#262626"/>
<path d="M1.50474 42.6201V44.7868L2.89462 45.74C2.89462 45.74 2.43273 47.5666 2.19758 47.8269C1.96664 48.0831 1.56774 48.3434 1.50055 49.473C1.47116 49.981 1.38718 50.6193 1.3032 51.2239C1.20242 51.963 1.10164 52.6558 1.10164 53.0338C1.10164 53.3781 1.13523 54.3984 1.15203 55.3726C1.16882 56.351 1.16882 57.2832 1.10164 57.4553C1.00086 57.7241 1.25281 58.2028 1.40397 58.6856C1.44596 58.8242 1.48375 58.967 1.49635 59.1056C1.56353 59.7144 2.26897 59.9748 1.98344 60.5794C1.69791 61.1883 1.07645 62.8385 1.07645 62.8385L0.568359 63.3592V61.4486L1.29899 60.2351L1.54253 56.7121L0.568359 54.0751L1.54253 50.4639L1.49635 47.8269C1.49635 47.8269 0.627142 46.416 1.6727 46.2943C2.71826 46.1767 4.47767 43.4809 4.28032 43.4809C4.08296 43.4809 1.49635 44.6021 1.49635 44.6021V42.6201H1.50474Z" fill="#262626"/>
<path d="M102.71 73.8732L102.025 76.2667C102.071 76.4934 103.478 78.1185 103.306 78.2738L101.19 80.176C100.963 80.3775 100.908 80.7093 101.059 80.9738C101.576 81.885 102.747 83.888 103.234 84.1819C103.864 84.564 104.876 84.8705 105.481 86.9994C105.754 87.961 106.203 89.1368 106.636 90.2621C107.165 91.6268 107.673 92.9117 107.824 93.6381C107.963 94.2974 108.298 96.2667 108.655 98.1437C109.012 100.021 109.39 101.809 109.613 102.108C109.953 102.574 109.567 103.611 109.42 104.61C109.378 104.9 109.352 105.19 109.373 105.458C109.47 106.655 107.971 107.491 108.865 108.52C109.655 109.422 111.364 111.753 111.759 112.294C111.813 112.37 111.884 112.433 111.964 112.475C112.447 112.744 113.022 112.32 112.909 111.778L111.704 110.128C111.679 109.998 112.376 109.456 112.275 109.364L110.352 107.592C110.301 107.545 110.264 107.495 110.23 107.44L108.693 101.175C108.592 100.999 106.85 101.377 107.081 99.8863L109.449 94.4065C109.386 95.5025 109.361 95.2631 109.226 95.0784L106.623 87.3186C106.388 86.6131 105.678 86.1806 104.943 86.294C104.167 86.4116 103.348 86.5543 103.411 86.4326L104.788 83.8838C104.796 83.867 104.805 83.8502 104.813 83.8292C104.981 83.4303 103.499 79.9199 101.177 80.1844C98.7541 80.4573 99.1194 77.3501 99.5729 77.2535L98.1914 73.3484C98.4559 73.2938 101.001 74.1042 101.038 73.8355L102.71 73.8732Z" fill="#262626"/>
<path d="M18.4466 113.697V115.641C18.4466 115.78 18.371 115.906 18.2492 115.969L16.9055 116.674C16.7418 116.758 16.6662 116.952 16.7292 117.124C16.9181 117.653 17.3086 118.715 17.5354 118.908C17.8377 119.164 18.3584 119.425 18.4466 120.554C18.4844 121.062 18.5935 121.701 18.7027 122.305C18.8329 123.044 18.9672 123.737 18.9672 124.115C18.9672 124.459 18.9253 125.48 18.9001 126.454C18.8791 127.428 18.8791 128.365 18.9672 128.537C19.1016 128.805 18.7657 129.284 18.5683 129.767C18.5096 129.906 18.4634 130.048 18.4466 130.187C18.3584 130.796 17.4346 131.056 17.8125 131.661C18.14 132.19 18.7993 133.517 18.9631 133.844C18.9882 133.895 19.0218 133.937 19.0638 133.97C19.3074 134.159 19.6601 133.987 19.6601 133.681V132.66C19.6601 132.576 19.6307 132.496 19.5803 132.433L18.7405 131.367C18.7153 131.337 18.6985 131.3 18.6817 131.262L17.5564 128.125C17.5144 128.008 17.5354 127.873 17.611 127.772L19.5131 125.337C19.6013 125.224 19.6139 125.072 19.5551 124.946L17.338 120.437C17.2708 120.298 17.296 120.134 17.401 120.021L18.4298 118.921C18.4382 118.912 18.4466 118.904 18.4508 118.896C18.5977 118.707 20.1808 116.59 18.8749 116.477C17.506 116.359 14.5331 114.566 14.7934 114.566H17.8419C17.9931 114.566 18.1274 114.474 18.1862 114.336L18.4466 113.697Z" fill="#262626"/>
<path d="M68.9599 32.2485C67.4105 34.0247 66.4363 33.8819 65.0506 35.0409C64.4124 35.5742 64.9582 35.1795 64.7147 35.7841C64.5257 36.2502 63.2198 35.9689 63.434 36.12C65.3404 37.4637 61.4856 37.0648 61.2925 39.1391C61.2001 40.1385 60.4317 42.8721 59.7934 44.938L60.3687 47.5624L60.3183 49.221L60.0664 50.4178L61.4521 51.7027L63.1023 54.2389L62.9805 56.6113L63.2828 58.3959L62.7537 60.8902L61.9139 62.0155L61.0279 63.7035L59.8858 65.1816L60.4569 66.7604L61.3303 67.6212L60.5618 68.7634L59.4323 69.8257L58.0466 70.3128L56.7617 71.1358L55.3424 72.3997L54.4648 72.996L55.4768 73.2102L57.3118 71.6691L59.9908 70.4094L61.4185 69.7208L62.38 67.3189L64.7189 66.2481L66.3817 65.5049L66.1592 64.4174L66.5287 63.0359L65.6469 64.1528L65.7939 65.0682L64.5845 65.803L62.443 66.6554L61.431 66.8066L60.5786 65.4797L61.7208 64.0017L62.4766 63.6405L63.1736 62.1205L63.6649 60.8692L64.3242 59.1854L64.4082 57.0145L64.7483 55.0535L64.4544 53.9492L62.6404 51.4801L61.4227 51.1694L61.809 50.0524C61.809 50.0524 61.62 48.4568 61.5066 47.9151C61.3933 47.3693 62.2247 47.0165 61.641 46.2145C61.0573 45.4125 60.6416 45.2572 60.6416 45.2572L61.3051 42.6076C61.3051 42.6076 61.9895 39.5632 62.7789 38.3245C63.5684 37.0858 66.6463 35.2844 66.6463 35.2844L68.7668 33.5418L69.4806 32.6516L68.9599 32.2485Z" fill="#262626"/>
<path d="M86.7928 114.025C85.0502 114.399 84.223 115.007 83.1312 115.524C82.6273 115.759 81.5524 115.7 81.3886 115.998C81.2627 116.229 82.0227 115.793 82.0605 115.935C82.0689 115.973 81.7456 116.544 81.7288 117.623C81.7204 118.144 81.2627 119.53 80.868 120.575L81.5398 121.999L81.6154 122.868L81.4852 123.481L82.7491 124.258L84.3238 125.711L84.3868 126.954L84.7689 127.915L84.5001 129.192L83.8661 129.725L83.2362 130.552L82.3754 131.254L82.9717 132.127L83.7695 132.643L83.1984 133.189L82.3166 133.672L81.1787 133.832L80.1499 134.176L79.0372 134.743L78.3359 134.995L79.2051 135.18L80.6454 134.495L82.8205 134.021L83.9794 133.756L84.6219 132.555L86.5241 132.156L87.8804 131.883L87.6158 131.291L87.83 130.59L87.1665 131.119L87.3555 131.615L86.3855 131.917L84.6345 132.215L83.7905 132.224L82.9759 131.464L83.8367 130.762L84.4497 130.624L84.9326 129.872L85.2601 129.246L85.6969 128.402L85.6129 127.264L85.7598 126.253L85.4323 125.648L83.7233 124.22L82.6735 123.972L82.9213 123.41C82.9213 123.41 82.6483 122.557 82.514 122.259C82.3796 121.961 83.0557 121.835 82.5056 121.373C81.9555 120.911 81.5944 120.798 81.5944 120.798L81.9681 119.45C81.9681 119.45 82.3334 117.892 82.9129 117.296C83.4924 116.695 85.9698 115.965 85.9698 115.965L87.6368 115.196L88.1785 114.777L86.7928 114.025Z" fill="#262626"/>
</svg>
