<svg width="115" height="83" viewBox="0 0 115 83" fill="none" xmlns="http://www.w3.org/2000/svg">
<path opacity="0.2" d="M73.8788 83L62.0303 66.1226C73.6465 57.337 81.3906 50.324 85.2626 45.0836C79.8417 44.9294 75.1178 42.6945 71.0909 38.3788C67.064 34.2173 65.0505 29.3621 65.0505 23.8134C65.0505 17.0316 67.4512 11.3287 72.2525 6.70473C76.899 2.23491 82.7071 0 89.6768 0C96.9562 0 102.997 2.54317 107.798 7.62952C112.599 12.87 115 19.4206 115 27.2813C115 46.5478 101.293 65.1207 73.8788 83ZM23.2323 45.0836C17.8114 44.9294 13.0875 42.6945 9.0606 38.3788C5.03367 34.2173 3.0202 29.3621 3.0202 23.8134C3.0202 17.0316 5.42088 11.3287 10.2222 6.70473C14.8687 2.23491 20.6768 0 27.6465 0C34.9259 0 40.9663 2.54317 45.7677 7.62952C50.569 12.87 52.9697 19.4206 52.9697 27.2813C52.9697 46.5478 39.2626 65.1207 11.8485 83L0 66.1226C11.6162 57.337 19.3603 50.324 23.2323 45.0836Z" fill="#E98331"/>
</svg>
