<svg width="115" height="83" viewBox="0 0 115 83" fill="none" xmlns="http://www.w3.org/2000/svg">
<path opacity="0.2" d="M41.1212 0L52.9697 16.8774C41.3535 25.663 33.6094 32.676 29.7374 37.9164C35.1583 38.0706 39.8822 40.3055 43.9091 44.6212C47.936 48.7827 49.9495 53.6379 49.9495 59.1866C49.9495 65.9684 47.5488 71.6713 42.7475 76.2953C38.101 80.7651 32.2929 83 25.3232 83C18.0438 83 12.0034 80.4568 7.20202 75.3705C2.40067 70.13 0 63.5794 0 55.7187C0 36.4522 13.7071 17.8793 41.1212 0ZM91.7677 37.9164C97.1886 38.0706 101.912 40.3055 105.939 44.6212C109.966 48.7827 111.98 53.6379 111.98 59.1866C111.98 65.9684 109.579 71.6713 104.778 76.2953C100.131 80.7651 94.3232 83 87.3535 83C80.0741 83 74.0337 80.4568 69.2323 75.3705C64.431 70.13 62.0303 63.5794 62.0303 55.7187C62.0303 36.4522 75.7374 17.8793 103.152 0L115 16.8774C103.384 25.663 95.6397 32.676 91.7677 37.9164Z" fill="#E98331"/>
</svg>
