<svg id="visual" viewBox="0 0 900 900" width="900" height="900" xmlns="http://www.w3.org/2000/svg" xmlns:xlink="http://www.w3.org/1999/xlink" version="1.1"><g transform="translate(-8.409629249858966 909.9399157763118)"><path d="M193.8 -338.9C253 -301.6 304 -253.3 345.4 -195C386.7 -136.7 418.4 -68.3 416 -1.4C413.7 65.6 377.3 131.3 337.1 191.4C296.8 251.6 252.7 306.4 195.8 340.4C139 374.4 69.5 387.7 0.6 386.7C-68.3 385.7 -136.7 370.4 -197.1 338.5C-257.6 306.5 -310.2 258 -344.4 198.8C-378.6 139.7 -394.3 69.8 -398.3 -2.3C-402.4 -74.5 -394.7 -149 -362.2 -210.9C-329.6 -272.8 -272 -322.2 -207.5 -356.4C-143 -390.7 -71.5 -409.8 -2.1 -406.2C67.3 -402.6 134.7 -376.2 193.8 -338.9" fill="#893242"></path></g></svg>