<svg id="visual" viewBox="0 0 900 900" width="900" height="900" xmlns="http://www.w3.org/2000/svg" xmlns:xlink="http://www.w3.org/1999/xlink" version="1.1"><g transform="translate(461.5016564098888 444.11691706568695)"><path d="M157.3 -270.5C202.6 -246.3 237.3 -201.7 259 -153.2C280.6 -104.7 289.3 -52.3 289.3 0C289.3 52.3 280.6 104.7 257.8 151.1C235 197.6 198 238.2 152.7 266.1C107.3 293.9 53.7 309 1.5 306.4C-50.7 303.8 -101.3 283.5 -150 257.6C-198.8 231.8 -245.5 200.3 -274.7 156.4C-303.9 112.5 -315.4 56.3 -311.6 2.2C-307.8 -51.8 -288.6 -103.7 -258.7 -146.3C-228.8 -188.9 -188.2 -222.3 -143.3 -246.8C-98.4 -271.2 -49.2 -286.6 3.4 -292.5C56 -298.3 112 -294.7 157.3 -270.5" fill="#EC8845"></path></g></svg>