<svg id="visual" viewBox="0 0 900 900" width="900" height="900" xmlns="http://www.w3.org/2000/svg" xmlns:xlink="http://www.w3.org/1999/xlink" version="1.1"><g transform="translate(915.9720198894989 6.7316062702594195)"><path d="M289.2 -504.4C375.1 -451.4 445.2 -374.4 495.9 -286.4C546.5 -198.3 577.8 -99.2 579.8 1.2C581.8 101.5 554.6 203 504.4 291.9C454.3 380.8 381.1 457.1 293.2 507.4C205.3 557.6 102.7 581.8 -2 585.3C-106.7 588.8 -213.3 571.5 -298.6 519.7C-383.8 467.9 -447.7 381.6 -503.7 289.3C-559.7 196.9 -607.8 98.4 -611.6 -2.2C-615.4 -102.8 -574.9 -205.7 -521.8 -303.1C-468.7 -400.5 -403.1 -492.5 -314.1 -543.8C-225 -595 -112.5 -605.5 -5.4 -596.1C101.7 -586.8 203.3 -557.5 289.2 -504.4" fill="#EC8845"></path></g></svg>